# xmcd
#
# Track frame offsets:
#	150
#	26627
#	51280
#	72775
#	95730
#	116855
#	147192
#	171670
#	198067
#	221560
#
# Disc length: 3511 seconds
#
# Revision: 19
# Processed by: cddbd v1.5.2PL0 Copyright (c) Steve Scherf et al.
# Submitted via: Jack! The Knife 20 Magnifico
#
DISCID=990db50a
DTITLE=Judas Priest - Jugulator
DYEAR=1997
DGENRE=Metal
TTITLE0=Jugulator
TTITLE1=Blood Stained
TTITLE2=Dead Meat
TTITLE3=Death Row
TTITLE4=Decapitate
TTITLE5=Burn In Hell
TTITLE6=Brain Dead
TTITLE7=Abductors
TTITLE8=Bullet Train
TTITLE9=Cathedral Spires
EXTD=Tipton, Downing, Lynch
EXTT0=Downing, Tipton
EXTT1=Downing, Tipton
EXTT2=Downing, Tipton
EXTT3=Downing, Tipton
EXTT4=Downing, Tipton
EXTT5=Downing, Tipton
EXTT6=Downing, Tipton
EXTT7=Downing, Tipton
EXTT8=Downing, Tipton
EXTT9=Downing, Tipton
PLAYORDER=
